<svg id="visual" viewBox="0 0 1098 780" width="1098" height="780" xmlns="http://www.w3.org/2000/svg" xmlns:xlink="http://www.w3.org/1999/xlink" version="1.1"><path d="M0 478L26.2 490.3C52.3 502.7 104.7 527.3 157 544.7C209.3 562 261.7 572 314 565.8C366.3 559.7 418.7 537.3 470.8 520C523 502.7 575 490.3 627.2 482.7C679.3 475 731.7 472 784 488.3C836.3 504.7 888.7 540.3 941 552.5C993.3 564.7 1045.7 553.3 1071.8 547.7L1098 542L1098 781L1071.8 781C1045.7 781 993.3 781 941 781C888.7 781 836.3 781 784 781C731.7 781 679.3 781 627.2 781C575 781 523 781 470.8 781C418.7 781 366.3 781 314 781C261.7 781 209.3 781 157 781C104.7 781 52.3 781 26.2 781L0 781Z" fill="#208aa2"></path><path d="M0 535L26.2 542.2C52.3 549.3 104.7 563.7 157 561.2C209.3 558.7 261.7 539.3 314 535.3C366.3 531.3 418.7 542.7 470.8 548.3C523 554 575 554 627.2 553.8C679.3 553.7 731.7 553.3 784 551.3C836.3 549.3 888.7 545.7 941 544.7C993.3 543.7 1045.7 545.3 1071.8 546.2L1098 547L1098 781L1071.8 781C1045.7 781 993.3 781 941 781C888.7 781 836.3 781 784 781C731.7 781 679.3 781 627.2 781C575 781 523 781 470.8 781C418.7 781 366.3 781 314 781C261.7 781 209.3 781 157 781C104.7 781 52.3 781 26.2 781L0 781Z" fill="#26a3bf"></path><path d="M0 591L26.2 590.7C52.3 590.3 104.7 589.7 157 598.3C209.3 607 261.7 625 314 637.5C366.3 650 418.7 657 470.8 646.3C523 635.7 575 607.3 627.2 604.2C679.3 601 731.7 623 784 624C836.3 625 888.7 605 941 594.2C993.3 583.3 1045.7 581.7 1071.8 580.8L1098 580L1098 781L1071.8 781C1045.7 781 993.3 781 941 781C888.7 781 836.3 781 784 781C731.7 781 679.3 781 627.2 781C575 781 523 781 470.8 781C418.7 781 366.3 781 314 781C261.7 781 209.3 781 157 781C104.7 781 52.3 781 26.2 781L0 781Z" fill="#2dbcdc"></path><path d="M0 663L26.2 662.7C52.3 662.3 104.7 661.7 157 655.5C209.3 649.3 261.7 637.7 314 636.5C366.3 635.3 418.7 644.7 470.8 645.7C523 646.7 575 639.3 627.2 634.8C679.3 630.3 731.7 628.7 784 632C836.3 635.3 888.7 643.7 941 651.7C993.3 659.7 1045.7 667.3 1071.8 671.2L1098 675L1098 781L1071.8 781C1045.7 781 993.3 781 941 781C888.7 781 836.3 781 784 781C731.7 781 679.3 781 627.2 781C575 781 523 781 470.8 781C418.7 781 366.3 781 314 781C261.7 781 209.3 781 157 781C104.7 781 52.3 781 26.2 781L0 781Z" fill="#5fc7e0"></path><path d="M0 686L26.2 687.7C52.3 689.3 104.7 692.7 157 700.7C209.3 708.7 261.7 721.3 314 728.3C366.3 735.3 418.7 736.7 470.8 731.8C523 727 575 716 627.2 712.8C679.3 709.7 731.7 714.3 784 713.3C836.3 712.3 888.7 705.7 941 710C993.3 714.3 1045.7 729.7 1071.8 737.3L1098 745L1098 781L1071.8 781C1045.7 781 993.3 781 941 781C888.7 781 836.3 781 784 781C731.7 781 679.3 781 627.2 781C575 781 523 781 470.8 781C418.7 781 366.3 781 314 781C261.7 781 209.3 781 157 781C104.7 781 52.3 781 26.2 781L0 781Z" fill="#81d1e5"></path></svg>