<svg id="visual" viewBox="0 0 900 600" width="900" height="600" xmlns="http://www.w3.org/2000/svg" xmlns:xlink="http://www.w3.org/1999/xlink" version="1.1"><path d="M0 189L21.5 198.7C43 208.3 86 227.7 128.8 225.2C171.7 222.7 214.3 198.3 257.2 195.2C300 192 343 210 385.8 222.5C428.7 235 471.3 242 514.2 233C557 224 600 199 642.8 197.7C685.7 196.3 728.3 218.7 771.2 220.5C814 222.3 857 203.7 878.5 194.3L900 185L900 0L878.5 0C857 0 814 0 771.2 0C728.3 0 685.7 0 642.8 0C600 0 557 0 514.2 0C471.3 0 428.7 0 385.8 0C343 0 300 0 257.2 0C214.3 0 171.7 0 128.8 0C86 0 43 0 21.5 0L0 0Z" fill="#81d1e5"></path><path d="M0 155L21.5 152.8C43 150.7 86 146.3 128.8 146C171.7 145.7 214.3 149.3 257.2 157.5C300 165.7 343 178.3 385.8 184.3C428.7 190.3 471.3 189.7 514.2 186.3C557 183 600 177 642.8 165.3C685.7 153.7 728.3 136.3 771.2 134.8C814 133.3 857 147.7 878.5 154.8L900 162L900 0L878.5 0C857 0 814 0 771.2 0C728.3 0 685.7 0 642.8 0C600 0 557 0 514.2 0C471.3 0 428.7 0 385.8 0C343 0 300 0 257.2 0C214.3 0 171.7 0 128.8 0C86 0 43 0 21.5 0L0 0Z" fill="#5fc7e0"></path><path d="M0 142L21.5 134C43 126 86 110 128.8 111.7C171.7 113.3 214.3 132.7 257.2 141.7C300 150.7 343 149.3 385.8 139.8C428.7 130.3 471.3 112.7 514.2 112.3C557 112 600 129 642.8 129.8C685.7 130.7 728.3 115.3 771.2 111.3C814 107.3 857 114.7 878.5 118.3L900 122L900 0L878.5 0C857 0 814 0 771.2 0C728.3 0 685.7 0 642.8 0C600 0 557 0 514.2 0C471.3 0 428.7 0 385.8 0C343 0 300 0 257.2 0C214.3 0 171.7 0 128.8 0C86 0 43 0 21.5 0L0 0Z" fill="#2dbcdc"></path><path d="M0 69L21.5 71C43 73 86 77 128.8 83.3C171.7 89.7 214.3 98.3 257.2 101.3C300 104.3 343 101.7 385.8 102.7C428.7 103.7 471.3 108.3 514.2 110.3C557 112.3 600 111.7 642.8 111.3C685.7 111 728.3 111 771.2 105.5C814 100 857 89 878.5 83.5L900 78L900 0L878.5 0C857 0 814 0 771.2 0C728.3 0 685.7 0 642.8 0C600 0 557 0 514.2 0C471.3 0 428.7 0 385.8 0C343 0 300 0 257.2 0C214.3 0 171.7 0 128.8 0C86 0 43 0 21.5 0L0 0Z" fill="#26a3bf"></path><path d="M0 32L21.5 34.2C43 36.3 86 40.7 128.8 43.2C171.7 45.7 214.3 46.3 257.2 46C300 45.7 343 44.3 385.8 45.2C428.7 46 471.3 49 514.2 49C557 49 600 46 642.8 49.2C685.7 52.3 728.3 61.7 771.2 62.3C814 63 857 55 878.5 51L900 47L900 0L878.5 0C857 0 814 0 771.2 0C728.3 0 685.7 0 642.8 0C600 0 557 0 514.2 0C471.3 0 428.7 0 385.8 0C343 0 300 0 257.2 0C214.3 0 171.7 0 128.8 0C86 0 43 0 21.5 0L0 0Z" fill="#208aa2"></path></svg>