<svg id="visual" viewBox="0 0 960 540" width="960" height="540" xmlns="http://www.w3.org/2000/svg" xmlns:xlink="http://www.w3.org/1999/xlink" version="1.1"><path d="M0 330L22.8 338.7C45.7 347.3 91.3 364.7 137 376.8C182.7 389 228.3 396 274 391.7C319.7 387.3 365.3 371.7 411.2 359.7C457 347.7 503 339.3 548.8 334C594.7 328.7 640.3 326.3 686 337.5C731.7 348.7 777.3 373.3 823 381.8C868.7 390.3 914.3 382.7 937.2 378.8L960 375L960 541L937.2 541C914.3 541 868.7 541 823 541C777.3 541 731.7 541 686 541C640.3 541 594.7 541 548.8 541C503 541 457 541 411.2 541C365.3 541 319.7 541 274 541C228.3 541 182.7 541 137 541C91.3 541 45.7 541 22.8 541L0 541Z" fill="#208aa2"></path><path d="M0 370L22.8 375C45.7 380 91.3 390 137 388.3C182.7 386.7 228.3 373.3 274 370.5C319.7 367.7 365.3 375.3 411.2 379.2C457 383 503 383 548.8 383C594.7 383 640.3 383 686 381.7C731.7 380.3 777.3 377.7 823 377C868.7 376.3 914.3 377.7 937.2 378.3L960 379L960 541L937.2 541C914.3 541 868.7 541 823 541C777.3 541 731.7 541 686 541C640.3 541 594.7 541 548.8 541C503 541 457 541 411.2 541C365.3 541 319.7 541 274 541C228.3 541 182.7 541 137 541C91.3 541 45.7 541 22.8 541L0 541Z" fill="#26a3bf"></path><path d="M0 409L22.8 408.8C45.7 408.7 91.3 408.3 137 414.3C182.7 420.3 228.3 432.7 274 441.2C319.7 449.7 365.3 454.3 411.2 447C457 439.7 503 420.3 548.8 418.2C594.7 416 640.3 431 686 431.5C731.7 432 777.3 418 823 410.5C868.7 403 914.3 402 937.2 401.5L960 401L960 541L937.2 541C914.3 541 868.7 541 823 541C777.3 541 731.7 541 686 541C640.3 541 594.7 541 548.8 541C503 541 457 541 411.2 541C365.3 541 319.7 541 274 541C228.3 541 182.7 541 137 541C91.3 541 45.7 541 22.8 541L0 541Z" fill="#2dbcdc"></path><path d="M0 459L22.8 458.7C45.7 458.3 91.3 457.7 137 453.3C182.7 449 228.3 441 274 440.3C319.7 439.7 365.3 446.3 411.2 447C457 447.7 503 442.3 548.8 439.2C594.7 436 640.3 435 686 437.3C731.7 439.7 777.3 445.3 823 450.8C868.7 456.3 914.3 461.7 937.2 464.3L960 467L960 541L937.2 541C914.3 541 868.7 541 823 541C777.3 541 731.7 541 686 541C640.3 541 594.7 541 548.8 541C503 541 457 541 411.2 541C365.3 541 319.7 541 274 541C228.3 541 182.7 541 137 541C91.3 541 45.7 541 22.8 541L0 541Z" fill="#5fc7e0"></path><path d="M0 475L22.8 476C45.7 477 91.3 479 137 484.5C182.7 490 228.3 499 274 504C319.7 509 365.3 510 411.2 506.7C457 503.3 503 495.7 548.8 493.3C594.7 491 640.3 494 686 493.2C731.7 492.3 777.3 487.7 823 490.8C868.7 494 914.3 505 937.2 510.5L960 516L960 541L937.2 541C914.3 541 868.7 541 823 541C777.3 541 731.7 541 686 541C640.3 541 594.7 541 548.8 541C503 541 457 541 411.2 541C365.3 541 319.7 541 274 541C228.3 541 182.7 541 137 541C91.3 541 45.7 541 22.8 541L0 541Z" fill="#81d1e5"></path></svg>