<svg id="visual" viewBox="0 0 900 600" width="900" height="600" xmlns="http://www.w3.org/2000/svg" xmlns:xlink="http://www.w3.org/1999/xlink" version="1.1"><rect x="0" y="0" width="900" height="600" fill="#001220"></rect><path d="M0 308L25 311.5C50 315 100 322 150 315.8C200 309.7 250 290.3 300 299C350 307.7 400 344.3 450 363.2C500 382 550 383 600 384C650 385 700 386 750 382.5C800 379 850 371 875 367L900 363L900 601L875 601C850 601 800 601 750 601C700 601 650 601 600 601C550 601 500 601 450 601C400 601 350 601 300 601C250 601 200 601 150 601C100 601 50 601 25 601L0 601Z" fill="#208aa2"></path><path d="M0 353L25 346C50 339 100 325 150 334.2C200 343.3 250 375.7 300 379.8C350 384 400 360 450 348.5C500 337 550 338 600 350.7C650 363.3 700 387.7 750 403C800 418.3 850 424.7 875 427.8L900 431L900 601L875 601C850 601 800 601 750 601C700 601 650 601 600 601C550 601 500 601 450 601C400 601 350 601 300 601C250 601 200 601 150 601C100 601 50 601 25 601L0 601Z" fill="#26a3bf"></path><path d="M0 470L25 461.2C50 452.3 100 434.7 150 423.2C200 411.7 250 406.3 300 401.5C350 396.7 400 392.3 450 400.7C500 409 550 430 600 441.7C650 453.3 700 455.7 750 445.5C800 435.3 850 412.7 875 401.3L900 390L900 601L875 601C850 601 800 601 750 601C700 601 650 601 600 601C550 601 500 601 450 601C400 601 350 601 300 601C250 601 200 601 150 601C100 601 50 601 25 601L0 601Z" fill="#2dbcdc"></path><path d="M0 464L25 464.5C50 465 100 466 150 463.8C200 461.7 250 456.3 300 458.3C350 460.3 400 469.7 450 473.7C500 477.7 550 476.3 600 469.3C650 462.3 700 449.7 750 451.8C800 454 850 471 875 479.5L900 488L900 601L875 601C850 601 800 601 750 601C700 601 650 601 600 601C550 601 500 601 450 601C400 601 350 601 300 601C250 601 200 601 150 601C100 601 50 601 25 601L0 601Z" fill="#5fc7e0"></path><path d="M0 505L25 509C50 513 100 521 150 520.8C200 520.7 250 512.3 300 507C350 501.7 400 499.3 450 507.3C500 515.3 550 533.7 600 541.7C650 549.7 700 547.3 750 541.8C800 536.3 850 527.7 875 523.3L900 519L900 601L875 601C850 601 800 601 750 601C700 601 650 601 600 601C550 601 500 601 450 601C400 601 350 601 300 601C250 601 200 601 150 601C100 601 50 601 25 601L0 601Z" fill="#81d1e5"></path></svg>